# xmcd CD database file
#
# Track frame offsets:
#	150
#	21375
#	43091
#	65559
#	84885
#	101798
#	126074
#	145295
#
# Disc length: 2257 seconds
#
# Revision: 0
# Processed by: cddbd v1.5.1PL0 Copyright (c) Steve Scherf et al.
# Submitted via: CDex 1.51
#
DISCID=6d08cf08
DTITLE=David Fathead Newman - Ray Charles Presents David Fathead Newman
DYEAR=1900
DGENRE=Jazz
TTITLE0=Hard Times
TTITLE1=Weird Beard
TTITLE2=Willow Weep For Me
TTITLE3=Bill For Bennie
TTITLE4=Sweet Eyes
TTITLE5=Fathead
TTITLE6=Mean To Me
TTITLE7=Tin Tin Deo
EXTD=
EXTT0=
EXTT1=
EXTT2=
EXTT3=
EXTT4=
EXTT5=
EXTT6=
EXTT7=
PLAYORDER=
